<svg width="482" height="231" xmlns="http://www.w3.org/2000/svg" xmlns:svg="http://www.w3.org/2000/svg">
 <title>eat</title>
 <g>
  <title>Layer 1</title>
  <g id="svg_1" fill-rule="evenodd" fill="#072142">
   <path fill="#ffffff" id="svg_2" d="m60.0756,51.2c-7.039,0 -12.8,5.76 -12.8,12.8c0,7.04 5.761,12.8 12.8,12.8c7.04,0 12.801,-5.76 12.801,-12.8c0,-7.04 -5.761,-12.8 -12.801,-12.8"/>
   <path fill="#ffffff" id="svg_3" d="m413.9965,204.7996l-121.539,0c-8.448,0 -15.36,-5.76 -15.36,-12.8c0,-7.04 6.912,-12.8 15.36,-12.8l2.499,0c8.447,0 15.359,-5.759 15.359,-12.799c0,-7.04 -6.912,-12.8 -15.359,-12.8l-60.099,0c-8.448,0 -15.36,-5.761 -15.36,-12.801c0,-7.04 6.912,-12.8 15.36,-12.8l110.659,0c8.448,0 15.36,-5.76 15.36,-12.8c0,-7.04 -6.912,-12.799 -15.36,-12.799l-124.483,0c-8.448,0 -15.36,-5.76 -15.36,-12.8c0,-7.04 6.912,-12.801 15.36,-12.801l62.402,0c8.449,0 15.361,-5.76 15.361,-12.8c0,-7.04 -6.912,-12.8 -15.361,-12.8l0.702,0c-8.448,0 -15.36,-5.759 -15.36,-12.799c0,-7.04 6.912,-12.8 15.36,-12.8l81.218,0c8.449,0 15.361,-5.761 15.361,-12.801c0,-7.04 -6.912,-12.8 -15.361,-12.8l-183.679,0c-8.449,0 -15.361,5.76 -15.361,12.8c0,7.04 6.912,12.801 15.361,12.801l46.653,0c8.448,0 15.36,5.76 15.36,12.8c0,7.04 -6.912,12.799 -15.36,12.799l-122.174,0c-8.447,0 -15.359,5.76 -15.359,12.8c0,7.04 6.912,12.8 15.359,12.8l0.19,0c8.448,0 15.36,5.761 15.36,12.801c0,7.04 -6.912,12.8 -15.36,12.8l-90.469,0c-8.448,0 -15.36,5.759 -15.36,12.799c0,7.04 6.912,12.8 15.36,12.8l163.173,0c8.448,0 15.36,5.76 15.36,12.8c0,7.04 -6.912,12.801 -15.36,12.801l-3.774,0c-8.447,0 -15.359,5.76 -15.359,12.8c0,7.04 6.912,12.799 15.359,12.799l61.374,0c8.448,0 15.36,5.76 15.36,12.8c0,7.04 -6.912,12.8 -15.36,12.8l-120.733,0c-8.448,0 -15.36,5.761 -15.36,12.801c0,7.04 6.912,12.8 15.36,12.8l298.08,0c8.447,0 15.359,-5.76 15.359,-12.8c0,-7.04 -6.912,-12.801 -15.359,-12.801m52.4795,0l-12.16,0c-8.448,0 -15.36,5.761 -15.36,12.801c0,7.04 6.912,12.8 15.36,12.8l12.16,0c8.448,0 15.36,-5.76 15.36,-12.8c0,-7.04 -6.912,-12.801 -15.36,-12.801"/>
   <path fill="#ffffff" id="svg_4" d="m323.1156,166.4002c0,7.04 6.912,12.8 15.36,12.8l53.12,0c8.449,0 15.361,-5.76 15.361,-12.8c0,-7.04 -6.912,-12.8 -15.361,-12.8l-53.12,0c-8.448,0 -15.36,5.76 -15.36,12.8"/>
  </g>
 </g>
</svg>