<svg width="475" height="229" xmlns="http://www.w3.org/2000/svg" xmlns:svg="http://www.w3.org/2000/svg">
 <g>
  <title>Layer 1</title>
  <g id="svg_1" fill-rule="evenodd" fill="#072142">
   <path fill="#ffffff" id="svg_2" d="m48.1283,167.1805c0,-7.04 -6.912,-12.801 -15.36,-12.801l-17.409,0c-8.447,0 -15.359,5.761 -15.359,12.801c0,7.039 6.912,12.8 15.359,12.8l17.409,0c8.448,0 15.36,-5.761 15.36,-12.8m302.5918,48.6396c0,-7.04 -5.76,-12.8 -12.8,-12.8c-7.04,0 -12.8,5.76 -12.8,12.8c0,7.04 5.76,12.8 12.8,12.8c7.04,0 12.8,-5.76 12.8,-12.8m80.3838,-99.8398c0,-7.04 -6.912,-12.8 -15.359,-12.8l-17.409,0c-8.448,0 -15.36,5.76 -15.36,12.8c0,7.04 6.912,12.8 15.36,12.8l17.409,0c8.447,0 15.359,-5.76 15.359,-12.8"/>
   <path fill="#ffffff" id="svg_3" d="m458.7523,26.3797l-122.88,0c-8.448,0 -15.36,5.761 -15.36,12.801c0,7.039 6.912,12.8 15.36,12.8l6.655,0c8.449,0 15.361,5.759 15.361,12.799c0,7.04 -6.912,12.8 -15.361,12.8l-83.456,0c-8.447,0 -15.359,5.76 -15.359,12.8c0,7.04 6.912,12.801 15.359,12.801l100.353,0c8.448,0 15.359,5.76 15.359,12.8c0,7.04 -6.911,12.799 -15.359,12.799l-130.048,0c-8.448,0 -15.36,5.76 -15.36,12.8c0,7.04 6.912,12.8 15.36,12.8l107.52,0c8.448,0 15.36,5.761 15.36,12.801c0,7.039 -6.912,12.8 -15.36,12.8l-261.121,0c-8.447,0 -15.359,-5.761 -15.359,-12.8c0,-7.04 6.912,-12.801 15.359,-12.801l97.792,0c8.449,0 15.361,-5.76 15.361,-12.8c0,-7.04 -6.912,-12.8 -15.361,-12.8l-36.863,0c-8.448,0 -15.36,-5.759 -15.36,-12.799c0,-7.04 6.912,-12.8 15.36,-12.8l-0.513,0c8.449,0 15.361,-5.761 15.361,-12.801c0,-7.04 -6.912,-12.8 -15.361,-12.8l-116.223,0c-8.448,0 -15.361,-5.76 -15.361,-12.8c0,-7.04 6.913,-12.799 15.361,-12.799l201.216,0c8.448,0 15.36,-5.761 15.36,-12.8c0,-7.04 -6.912,-12.801 -15.36,-12.801l-23.552,0c-8.448,0 -15.36,-5.76 -15.36,-12.8c0,-7.04 6.912,-12.8 15.36,-12.8l261.12,0c8.447,0 15.359,5.76 15.359,12.8c0,7.04 -6.912,12.8 -15.359,12.8m-152.5762,189.4404c0,-7.04 -6.912,-12.8 -15.36,-12.8l-154.112,0c-8.448,0 -15.36,5.76 -15.36,12.8c0,7.04 6.912,12.8 15.36,12.8l154.112,0c8.448,0 15.36,-5.76 15.36,-12.8"/>
  </g>
 </g>
</svg>